<svg xmlns="http://www.w3.org/2000/svg" height="64" viewBox="0 0 64 64" widtht="64"><style>#favicon{fill:#ea9b26}</style><path id="favicon" d="M55.19 0c-5.47.27-7.74 1.87-12.8 9.06a242.47 242.47 90 0 0-9.06 13.87 708.49 708.49 90 0 0-1.34 1.86l-1.33-2-2.8-4.26C18.93 4.67 15.86 1.2 11.86.8H4.53c-.93 0-1.6.8-2.13 2C1.6 4.53-.13 9.06 0 9.2l2.4-.54a27.33 27.33 90 0 1 4-.66c3.06-.67 7.46 2.93 11.6 9.6l4 6.26a62.65 62.65 90 0 1 6.66 11.46v19.2c-.67.53-10.26-2.4-12.66-3.73-.4-.27-.27-.27-1.07.66a10.66 10.66 90 0 0-2.27 4.27c0 .4-.13.4.54.93 3.86 2.54 14.93 5.33 20 5.07a46.52 46.52 90 0 0 19.05-6 145.96 145.96 90 0 0-2.53-5.6s-.4 0-1.73.8a38.39 38.39 90 0 1-9.87 3.2l-1.73.53-.27-10.26c-.13-10-.13-9.2.4-10.67a131.17 131.17 90 0 1 7.74-13.06C49.99 11.2 53.46 7.6 56.79 7.6a32.93 32.93 90 0 1 7.2 1.06c0-.53-2-5.6-2.67-6.93-1.2-1.6-2-1.73-6.27-1.73"/></svg>